<svg width="47" height="34" viewBox="0 0 47 34" fill="none" xmlns="http://www.w3.org/2000/svg">
<path d="M23.6513 0H23.9127C26.3275 0.00907554 38.563 0.0998315 41.862 1.01344C42.8593 1.29226 43.7681 1.83575 44.4976 2.58958C45.227 3.34341 45.7516 4.28119 46.0188 5.30919C46.3155 6.45876 46.5241 7.98043 46.6651 9.55049L46.6945 9.86511L46.7591 10.6517L46.7826 10.9663C46.9736 13.7313 46.9971 16.3208 47 16.8866V17.1134C46.9971 17.7003 46.9706 20.4653 46.7591 23.3453L46.7356 23.663L46.7092 23.9776C46.5623 25.708 46.3449 27.4263 46.0188 28.6908C45.7524 29.7192 45.2281 30.6574 44.4985 31.4114C43.769 32.1654 42.8597 32.7086 41.862 32.9866C38.4543 33.9304 25.502 33.997 23.7071 34H23.29C22.3822 34 18.6279 33.9818 14.6914 33.8427L14.1919 33.8245L13.9364 33.8124L13.434 33.7913L12.9317 33.7701C9.67085 33.6219 6.56572 33.3829 5.13507 32.9835C4.1377 32.7058 3.22871 32.1631 2.49916 31.4097C1.76961 30.6563 1.24513 29.7187 0.978249 28.6908C0.652166 27.4293 0.434777 25.708 0.287893 23.9776L0.264392 23.6599L0.24089 23.3453C0.0959083 21.2955 0.0155693 19.2413 0 17.186L0 16.814C0.00587537 16.1635 0.0293768 13.9158 0.188012 11.4352L0.208576 11.1236L0.217389 10.9663L0.24089 10.6517L0.305519 9.86511L0.334896 9.55049C0.475905 7.98043 0.68448 6.45573 0.981186 5.30919C1.24762 4.28077 1.7719 3.34255 2.50148 2.58859C3.23105 1.83463 4.14028 1.29143 5.13801 1.01344C6.56866 0.620162 9.67379 0.378147 12.9346 0.226888L13.434 0.205712L13.9393 0.187562L14.1919 0.178486L14.6943 0.15731C17.4901 0.0646624 20.2871 0.0132287 23.0843 0.00302532H23.6513V0ZM18.8012 9.71083V24.2861L31.0131 17.0015L18.8012 9.71083Z" fill="white" fill-opacity="0.76"/>
</svg>
