<svg width="36" height="34" viewBox="0 0 36 34" fill="none" xmlns="http://www.w3.org/2000/svg">
<path fill-rule="evenodd" clip-rule="evenodd" d="M10.5791 0.102C12.4985 0.0185454 13.1105 0 18 0C22.8895 0 23.5015 0.0200909 25.4193 0.102C27.3371 0.183909 28.6462 0.472909 29.7916 0.891727C30.9911 1.31982 32.0793 1.989 32.9793 2.85445C33.8956 3.70291 34.6025 4.72909 35.0542 5.86345C35.4993 6.94527 35.8036 8.18164 35.892 9.98982C35.9804 11.8057 36 12.3837 36 17C36 21.6178 35.9787 22.1958 35.892 24.0086C35.8053 25.8168 35.4993 27.0532 35.0542 28.135C34.6025 29.2695 33.8945 30.2974 32.9793 31.1471C32.0793 32.0125 30.9911 32.6802 29.7916 33.1067C28.6462 33.5271 27.3371 33.8145 25.4225 33.898C23.5015 33.9815 22.8895 34 18 34C13.1105 34 12.4985 33.9799 10.5791 33.898C8.66455 33.8161 7.35545 33.5271 6.21 33.1067C5.00878 32.6801 3.92043 32.0114 3.02073 31.1471C2.10499 30.2981 1.39633 29.2707 0.944182 28.1365C0.500727 27.0547 0.196364 25.8184 0.108 24.0102C0.0196363 22.1943 0 21.6163 0 17C0 12.3822 0.0212727 11.8042 0.108 9.99291C0.194727 8.18164 0.500727 6.94527 0.944182 5.86345C1.397 4.72922 2.10619 3.70185 3.02236 2.85291C3.92079 1.98823 5.00805 1.31896 6.20836 0.891727C7.35382 0.472909 8.66291 0.185455 10.5775 0.102H10.5791ZM25.2736 3.162C23.3755 3.08009 22.806 3.06309 18 3.06309C13.194 3.06309 12.6245 3.08009 10.7264 3.162C8.97054 3.23773 8.01818 3.51436 7.38327 3.74773C6.54382 4.05682 5.94327 4.42309 5.31327 5.01809C4.71607 5.56681 4.25648 6.2348 3.96818 6.97309C3.72109 7.57273 3.42818 8.47218 3.348 10.1305C3.26127 11.9232 3.24327 12.461 3.24327 17C3.24327 21.539 3.26127 22.0768 3.348 23.8695C3.42818 25.5278 3.72109 26.4273 3.96818 27.0269C4.25618 27.7641 4.716 28.4333 5.31327 28.9819C5.89418 29.546 6.60273 29.9803 7.38327 30.2523C8.01818 30.4856 8.97054 30.7623 10.7264 30.838C12.6245 30.9199 13.1924 30.9369 18 30.9369C22.8076 30.9369 23.3755 30.9199 25.2736 30.838C27.0295 30.7623 27.9818 30.4856 28.6167 30.2523C29.4562 29.9432 30.0567 29.5769 30.6867 28.9819C31.284 28.4333 31.7438 27.7641 32.0318 27.0269C32.2789 26.4273 32.5718 25.5278 32.652 23.8695C32.7387 22.0768 32.7567 21.539 32.7567 17C32.7567 12.461 32.7387 11.9232 32.652 10.1305C32.5718 8.47218 32.2789 7.57273 32.0318 6.97309C31.7045 6.18027 31.3167 5.61309 30.6867 5.01809C30.1057 4.45411 29.3984 4.02005 28.6167 3.74773C27.9818 3.51436 27.0295 3.23773 25.2736 3.162ZM15.7009 22.2406C16.9849 22.7454 18.4146 22.8136 19.7459 22.4334C21.0771 22.0532 22.2274 21.2483 23.0001 20.1562C23.7728 19.0641 24.1201 17.7524 23.9826 16.4453C23.8452 15.1383 23.2315 13.9168 22.2464 12.9895C21.6184 12.3968 20.8591 11.943 20.0231 11.6607C19.1871 11.3784 18.2952 11.2746 17.4117 11.357C16.5282 11.4393 15.675 11.7055 14.9135 12.1367C14.152 12.5678 13.5012 13.153 13.0079 13.8501C12.5147 14.5473 12.1912 15.3391 12.0608 16.1685C11.9305 16.9979 11.9964 17.8443 12.254 18.6467C12.5115 19.4491 12.9542 20.1877 13.5503 20.8091C14.1463 21.4306 14.8808 21.9195 15.7009 22.2406ZM11.4578 10.8213C12.3169 10.0099 13.3369 9.36623 14.4594 8.9271C15.5819 8.48798 16.785 8.26196 18 8.26196C19.215 8.26196 20.4181 8.48798 21.5406 8.9271C22.6631 9.36623 23.6831 10.0099 24.5422 10.8213C25.4013 11.6327 26.0828 12.5959 26.5478 13.6561C27.0127 14.7162 27.252 15.8525 27.252 17C27.252 18.1475 27.0127 19.2838 26.5478 20.3439C26.0828 21.4041 25.4013 22.3673 24.5422 23.1787C22.8071 24.8174 20.4538 25.738 18 25.738C15.5462 25.738 13.1929 24.8174 11.4578 23.1787C9.72272 21.54 8.74796 19.3175 8.74796 17C8.74796 14.6825 9.72272 12.46 11.4578 10.8213ZM29.304 9.56327C29.5169 9.3736 29.6873 9.14551 29.8052 8.8925C29.9231 8.6395 29.9861 8.36673 29.9903 8.09035C29.9946 7.81396 29.9401 7.53957 29.8301 7.28343C29.72 7.02729 29.5567 6.79461 29.3498 6.59915C29.1428 6.4037 28.8964 6.24944 28.6252 6.14553C28.354 6.04161 28.0635 5.99014 27.7708 5.99417C27.4782 5.9982 27.1894 6.05765 26.9215 6.16898C26.6536 6.28032 26.4121 6.44129 26.2113 6.64236C25.8207 7.03341 25.6069 7.55282 25.6151 8.09035C25.6234 8.62787 25.8532 9.14118 26.2557 9.5213C26.6582 9.90143 27.2017 10.1184 27.7708 10.1263C28.34 10.1341 28.89 9.93216 29.304 9.56327Z" fill="white" fill-opacity="0.76"/>
</svg>
