<svg width="35" height="36" viewBox="0 0 35 36" fill="none" xmlns="http://www.w3.org/2000/svg">
<path d="M6.39079 0.5C2.85057 0.5 0 3.35057 0 6.89079V29.1092C0 32.6495 2.85057 35.5 6.39079 35.5H18.433V21.8172H14.8149V16.891H18.433V12.6822C18.433 9.37558 20.5708 6.33954 25.4953 6.33954C27.4892 6.33954 28.9636 6.53096 28.9636 6.53096L28.8477 11.1313C28.8477 11.1313 27.344 11.1171 25.7031 11.1171C23.9273 11.1171 23.6425 11.9353 23.6425 13.2937V16.891H28.9888L28.7558 21.8172H23.6425V35.5001H28.6092C32.1494 35.5001 35 32.6495 35 29.1093V6.89083C35 3.35061 32.1494 0.500035 28.6092 0.500035H6.39076L6.39079 0.5Z" fill="white" fill-opacity="0.76"/>
</svg>
