<svg width="198" height="74" viewBox="0 0 198 74" fill="none" xmlns="http://www.w3.org/2000/svg">
<g clip-path="url(#clip0_1_508)">
<path d="M104.487 21.6606C104.487 23.8828 102.691 25.6729 100.461 25.6729C98.2311 25.6729 96.4349 23.8828 96.4349 21.6606C96.4349 19.4384 98.1691 17.6482 100.461 17.6482C102.752 17.71 104.487 19.5001 104.487 21.6606ZM87.8876 29.747C87.8876 30.1174 87.8876 30.7346 87.8876 30.7346C87.8876 30.7346 85.9676 28.2655 81.8797 28.2655C75.1286 28.2655 69.864 33.389 69.864 40.4877C69.864 47.5248 75.0667 52.71 81.8797 52.71C86.0295 52.71 87.8876 50.1791 87.8876 50.1791V51.2285C87.8876 51.7223 88.2592 52.0927 88.7547 52.0927H93.7716V28.8828C93.7716 28.8828 89.1883 28.8828 88.7547 28.8828C88.2592 28.8828 87.8876 29.3149 87.8876 29.747ZM87.8876 44.6235C86.9586 45.9816 85.1005 47.1544 82.8707 47.1544C78.9068 47.1544 75.8719 44.6853 75.8719 40.4877C75.8719 36.2902 78.9068 33.8211 82.8707 33.8211C85.0385 33.8211 87.0205 35.0556 87.8876 36.3519V44.6235ZM97.4878 28.8828H103.434V52.0927H97.4878V28.8828ZM186.305 28.2655C182.218 28.2655 180.298 30.7346 180.298 30.7346V17.71H174.352V52.0927C174.352 52.0927 178.935 52.0927 179.368 52.0927C179.864 52.0927 180.236 51.6606 180.236 51.2285V50.1791C180.236 50.1791 182.156 52.71 186.243 52.71C192.995 52.71 198.259 47.5248 198.259 40.4877C198.259 33.4507 192.995 28.2655 186.305 28.2655ZM185.314 47.0927C183.023 47.0927 181.227 45.9198 180.298 44.5618V36.2902C181.227 35.0556 183.209 33.7593 185.314 33.7593C189.278 33.7593 192.313 36.2285 192.313 40.426C192.313 44.6235 189.278 47.0927 185.314 47.0927ZM171.255 38.3272V52.1544H165.309V39.0063C165.309 35.1791 164.07 33.6359 160.725 33.6359C158.929 33.6359 157.071 34.5618 155.894 35.9198V52.0927H149.948V28.8828H154.656C155.151 28.8828 155.523 29.3149 155.523 29.747V30.7346C157.257 28.9445 159.549 28.2655 161.84 28.2655C164.442 28.2655 166.609 29.0063 168.344 30.4877C170.45 32.2161 171.255 34.4384 171.255 38.3272ZM135.517 28.2655C131.429 28.2655 129.509 30.7346 129.509 30.7346V17.71H123.563V52.0927C123.563 52.0927 128.147 52.0927 128.58 52.0927C129.076 52.0927 129.447 51.6606 129.447 51.2285V50.1791C129.447 50.1791 131.367 52.71 135.455 52.71C142.206 52.71 147.471 47.5248 147.471 40.4877C147.533 33.4507 142.268 28.2655 135.517 28.2655ZM134.526 47.0927C132.234 47.0927 130.438 45.9198 129.509 44.5618V36.2902C130.438 35.0556 132.42 33.7593 134.526 33.7593C138.49 33.7593 141.525 36.2285 141.525 40.426C141.525 44.6235 138.49 47.0927 134.526 47.0927ZM118.423 28.2655C120.219 28.2655 121.148 28.5742 121.148 28.5742V34.068C121.148 34.068 116.193 32.4013 113.096 35.9198V52.1544H107.15V28.8828C107.15 28.8828 111.733 28.8828 112.167 28.8828C112.662 28.8828 113.034 29.3149 113.034 29.747V30.7346C114.149 29.4384 116.564 28.2655 118.423 28.2655ZM56.6714 49.9939C56.3617 49.2532 56.052 48.4507 55.7424 47.7717C55.2469 46.6606 54.7514 45.6112 54.3178 44.6235L54.2559 44.5618C49.9822 35.3026 45.3989 25.9198 40.5678 16.6606L40.382 16.2902C39.8865 15.3643 39.391 14.3766 38.8955 13.389C38.2761 12.2779 37.6568 11.105 36.6658 9.99391C34.6838 7.52477 31.8347 6.16675 28.7998 6.16675C25.7029 6.16675 22.9158 7.52477 20.8719 9.87045C19.9428 10.9816 19.2615 12.1544 18.6421 13.2655C18.1466 14.2532 17.6511 15.2408 17.1556 16.1667L16.9698 16.5371C12.2007 25.7964 7.55542 35.1791 3.28178 44.4384L3.21984 44.5618C2.78628 45.5495 2.29079 46.5988 1.79529 47.71C1.48561 48.389 1.17592 49.1297 0.866236 49.9322C0.0610559 52.2161 -0.186692 54.3766 0.122993 56.5988C0.804299 61.2285 3.90114 65.1174 8.17479 66.8458C9.78515 67.5248 11.4574 67.8334 13.1917 67.8334C13.6872 67.8334 14.3065 67.7717 14.802 67.71C16.846 67.463 18.9518 66.784 20.9957 65.6112C23.5352 64.1914 25.9507 62.1544 28.6759 59.1914C31.4011 62.1544 33.8786 64.1914 36.3561 65.6112C38.4 66.784 40.5059 67.463 42.5498 67.71C43.0453 67.7717 43.6647 67.8334 44.1601 67.8334C45.8944 67.8334 47.6286 67.5248 49.177 66.8458C53.5126 65.1174 56.5475 61.1667 57.2288 56.5988C57.7243 54.4384 57.4766 52.2779 56.6714 49.9939ZM28.7379 53.2038C25.3933 49.0063 23.2255 45.0556 22.4822 41.7223C22.1725 40.3025 22.1106 39.068 22.2964 37.9569C22.4203 36.9692 22.7919 36.105 23.2874 35.3643C24.4642 33.6976 26.4462 32.6482 28.7379 32.6482C31.0295 32.6482 33.0734 33.6359 34.1883 35.3643C34.6838 36.105 35.0554 36.9692 35.1793 37.9569C35.3651 39.068 35.3032 40.3643 34.9935 41.7223C34.2502 44.9939 32.0825 48.9445 28.7379 53.2038ZM53.4507 56.105C53.0171 59.3149 50.8493 62.0927 47.8144 63.3272C46.3279 63.9445 44.7176 64.1297 43.1072 63.9445C41.5588 63.7593 40.0104 63.2655 38.4 62.3396C36.1703 61.105 33.9406 59.1914 31.3392 56.3519C35.427 51.3519 37.9045 46.784 38.8336 42.71C39.2671 40.7964 39.3291 39.068 39.1433 37.463C38.8955 35.9198 38.3381 34.5001 37.471 33.2655C35.5509 30.4877 32.3302 28.8828 28.7379 28.8828C25.1455 28.8828 21.9248 30.5495 20.0047 33.2655C19.1376 34.5001 18.5802 35.9198 18.3324 37.463C18.0847 39.068 18.1466 40.8581 18.6421 42.71C19.5712 46.784 22.1106 51.4137 26.1365 56.4137C23.5971 59.2532 21.3054 61.1667 19.0757 62.4013C17.4653 63.3272 15.9169 63.8211 14.3685 64.0063C12.6962 64.1914 11.0858 63.9445 9.66128 63.389C6.62637 62.1544 4.45858 59.3766 4.02502 56.1667C3.83921 54.6235 3.96308 53.0803 4.58245 51.3519C4.76826 50.7346 5.07795 50.1174 5.38763 49.3766C5.82119 48.389 6.31669 47.3396 6.81218 46.2902L6.87412 46.1667C11.1478 36.9692 15.7311 27.5865 20.5002 18.4507L20.6861 18.0803C21.1815 17.1544 21.677 16.1667 22.1725 15.2408C22.668 14.2532 23.2255 13.3272 23.9068 12.5248C25.2074 11.0433 26.9417 10.2408 28.8617 10.2408C30.7818 10.2408 32.516 11.0433 33.8167 12.5248C34.498 13.3272 35.0554 14.2532 35.5509 15.2408C36.0464 16.1667 36.5419 17.1544 37.0374 18.0803L37.2232 18.4507C41.9304 27.6482 46.5137 37.0309 50.7874 46.2285V46.2902C51.2829 47.2779 51.7165 48.389 52.2119 49.3766C52.5216 50.1174 52.8313 50.7346 53.0171 51.3519C53.5126 52.9569 53.6984 54.5001 53.4507 56.105Z" fill="#FF5A5F"/>
</g>
<defs>
<clipPath id="clip0_1_508">
<rect width="198" height="74" fill="white"/>
</clipPath>
</defs>
</svg>
