<svg width="222" height="65" viewBox="0 0 222 65" fill="none" xmlns="http://www.w3.org/2000/svg">
<path d="M221.807 29.5667V25.6644H216.963V19.5978L216.8 19.648L212.25 21.0407L212.161 21.0679V25.6646H204.979V23.1039C204.979 21.9115 205.246 20.999 205.771 20.3905C206.293 19.7893 207.039 19.4836 207.99 19.4836C208.674 19.4836 209.383 19.6448 210.095 19.9627L210.274 20.0426V15.9329L210.19 15.902C209.525 15.6629 208.621 15.5425 207.5 15.5425C206.087 15.5425 204.803 15.8501 203.683 16.4597C202.563 17.0701 201.682 17.9416 201.065 19.0496C200.449 20.1563 200.137 21.4345 200.137 22.8491V25.6644H196.764V29.5667H200.137V46.0063H204.979V29.5667H212.161V40.0138C212.161 44.3164 214.189 46.4968 218.19 46.4968C218.848 46.4968 219.54 46.4197 220.246 46.2688C220.966 46.1138 221.455 45.9591 221.744 45.7938L221.808 45.756V41.8177L221.611 41.948C221.348 42.1231 221.021 42.2663 220.637 42.3727C220.252 42.4811 219.93 42.5354 219.68 42.5354C218.743 42.5354 218.05 42.2828 217.619 41.7842C217.184 41.281 216.963 40.4012 216.963 39.1704V29.5667H221.807ZM185.951 42.5361C184.193 42.5361 182.808 41.9531 181.831 40.8047C180.849 39.6506 180.351 38.0051 180.351 35.9144C180.351 33.7574 180.849 32.0692 181.832 30.8947C182.809 29.7279 184.181 29.1357 185.911 29.1357C187.59 29.1357 188.927 29.7013 189.884 30.8176C190.846 31.9398 191.335 33.6145 191.335 35.7966C191.335 38.0055 190.876 39.7023 189.97 40.8374C189.071 41.9638 187.719 42.5361 185.951 42.5361ZM186.166 25.1743C182.813 25.1743 180.15 26.1572 178.251 28.0957C176.353 30.0344 175.391 32.7173 175.391 36.0705C175.391 39.2554 176.33 41.8172 178.183 43.6836C180.036 45.5506 182.557 46.4963 185.676 46.4963C188.926 46.4963 191.536 45.4997 193.434 43.5344C195.332 41.5712 196.294 38.9137 196.294 35.6388C196.294 32.4041 195.391 29.8232 193.611 27.9693C191.83 26.1145 189.325 25.1743 186.166 25.1743ZM167.584 25.1743C165.303 25.1743 163.417 25.758 161.975 26.9087C160.525 28.0663 159.79 29.5845 159.79 31.4217C159.79 32.3766 159.949 33.2249 160.261 33.9444C160.575 34.6663 161.062 35.3018 161.708 35.8352C162.349 36.3643 163.339 36.9186 164.651 37.4824C165.754 37.9364 166.577 38.3204 167.099 38.6231C167.61 38.9197 167.972 39.2179 168.177 39.5083C168.376 39.7925 168.477 40.1814 168.477 40.6614C168.477 42.028 167.454 42.693 165.348 42.693C164.568 42.693 163.677 42.5299 162.701 42.2083C161.733 41.8916 160.818 41.4279 159.991 40.8333L159.789 40.689V45.3527L159.863 45.387C160.548 45.7034 161.412 45.9702 162.43 46.1802C163.447 46.3903 164.37 46.4972 165.172 46.4972C167.647 46.4972 169.64 45.9108 171.094 44.7532C172.558 43.5876 173.3 42.0336 173.3 40.1329C173.3 38.7617 172.9 37.5859 172.113 36.6376C171.332 35.697 169.975 34.8335 168.083 34.0702C166.575 33.4649 165.609 32.9624 165.211 32.5767C164.827 32.204 164.632 31.6771 164.632 31.0097C164.632 30.4182 164.873 29.9442 165.367 29.5604C165.865 29.1747 166.558 28.9785 167.427 28.9785C168.234 28.9785 169.06 29.106 169.881 29.3559C170.701 29.6057 171.421 29.9404 172.023 30.3497L172.221 30.4849V26.0611L172.145 26.0284C171.59 25.7904 170.858 25.5867 169.969 25.4214C169.085 25.2572 168.282 25.1743 167.584 25.1743ZM147.167 42.5361C145.41 42.5361 144.024 41.9531 143.047 40.8047C142.065 39.6506 141.568 38.0055 141.568 35.9144C141.568 33.7574 142.065 32.0692 143.048 30.8947C144.025 29.7279 145.397 29.1357 147.128 29.1357C148.806 29.1357 150.143 29.7013 151.1 30.8176C152.063 31.9398 152.551 33.6145 152.551 35.7966C152.551 38.0055 152.091 39.7023 151.186 40.8374C150.287 41.9638 148.935 42.5361 147.167 42.5361ZM147.383 25.1743C144.029 25.1743 141.365 26.1572 139.467 28.0957C137.57 30.0344 136.607 32.7173 136.607 36.0705C136.607 39.2567 137.547 41.8172 139.399 43.6836C141.252 45.5506 143.773 46.4963 146.892 46.4963C150.142 46.4963 152.753 45.4997 154.651 43.5344C156.548 41.5712 157.51 38.9137 157.51 35.6388C157.51 32.4041 156.608 29.8232 154.827 27.9693C153.045 26.1145 150.541 25.1743 147.383 25.1743ZM129.257 29.1872V25.6644H124.474V46.0059H129.257V35.6004C129.257 33.8311 129.658 32.3775 130.449 31.2796C131.23 30.1947 132.272 29.645 133.543 29.645C133.973 29.645 134.457 29.7161 134.981 29.8567C135.499 29.9964 135.875 30.1482 136.096 30.3078L136.297 30.4536V25.6296L136.22 25.5963C135.774 25.407 135.144 25.3115 134.347 25.3115C133.145 25.3115 132.069 25.6979 131.148 26.4586C130.339 27.1272 129.755 28.044 129.308 29.1872H129.257ZM115.908 25.1743C113.714 25.1743 111.756 25.6451 110.092 26.573C108.423 27.5031 107.133 28.8309 106.255 30.5193C105.381 32.2036 104.938 34.1711 104.938 36.3652C104.938 38.2871 105.368 40.0509 106.218 41.6054C107.069 43.1624 108.273 44.3806 109.797 45.2254C111.32 46.0692 113.079 46.497 115.027 46.497C117.3 46.497 119.24 46.0424 120.797 45.1458L120.859 45.1097V40.726L120.658 40.8728C119.953 41.3864 119.166 41.7964 118.318 42.0918C117.473 42.3869 116.702 42.5361 116.026 42.5361C114.149 42.5361 112.643 41.9486 111.549 40.7904C110.453 39.6306 109.897 38.0021 109.897 35.9529C109.897 33.8907 110.477 32.2204 111.619 30.9879C112.758 29.759 114.267 29.1357 116.105 29.1357C117.677 29.1357 119.209 29.6682 120.659 30.72L120.859 30.8657V26.2467L120.795 26.2102C120.249 25.9048 119.505 25.6526 118.582 25.4613C117.662 25.2705 116.763 25.1743 115.908 25.1743ZM101.643 25.6646H96.8603V46.0059H101.643V25.6646ZM99.3008 16.9991C98.5136 16.9991 97.827 17.2672 97.2629 17.7984C96.6964 18.3312 96.4091 19.002 96.4091 19.7936C96.4091 20.5727 96.693 21.2313 97.2541 21.7499C97.8115 22.2669 98.5003 22.529 99.301 22.529C100.102 22.529 100.793 22.2669 101.357 21.7507C101.925 21.2313 102.213 20.573 102.213 19.7936C102.213 19.0296 101.932 18.3657 101.38 17.8199C100.829 17.2751 100.129 16.9991 99.3008 16.9991ZM87.3666 24.1638V46.0059H92.248V17.6218H85.492L76.9046 38.7046L68.571 17.6218H61.5399V46.0056H66.1271V24.1616H66.2846L75.0846 46.0059H78.5465L87.2091 24.1638H87.3666Z" fill="#706D6E"/>
<path d="M22.5012 30.6466H0V8.13696H22.5012V30.6466Z" fill="#F1511B"/>
<path d="M47.3452 30.6466H24.8444V8.13696H47.3452V30.6466Z" fill="#80CC28"/>
<path d="M22.5005 55.5087H0V32.9993H22.5005V55.5087Z" fill="#00ADEF"/>
<path d="M47.3452 55.5087H24.8444V32.9993H47.3452V55.5087Z" fill="#FBBC09"/>
</svg>
