<svg width="230" height="67" viewBox="0 0 230 67" fill="none" xmlns="http://www.w3.org/2000/svg">
<path d="M89.847 20.729C89.847 19.8044 90.2138 18.9176 90.8668 18.2638C91.5197 17.61 92.4053 17.2427 93.3287 17.2427C94.2521 17.2427 95.1376 17.61 95.7905 18.2638C96.4434 18.9176 96.8102 19.8044 96.8102 20.729C96.7766 21.6311 96.3951 22.485 95.7458 23.1114C95.0966 23.7377 94.2302 24.0876 93.3287 24.0876C92.4272 24.0876 91.5607 23.7377 90.9114 23.1114C90.2622 22.485 89.8807 21.6311 89.847 20.729Z" fill="#273B7D"/>
<path d="M32.7089 42.4675C29.7122 42.4675 27.6271 40.0834 27.6271 36.6747C27.6271 33.2685 29.7122 30.8869 32.7113 30.8869C35.7249 30.8869 37.8318 33.2685 37.8318 36.6747C37.8318 40.1368 35.7711 42.4675 32.7089 42.4675ZM32.7089 25.7958C26.3664 25.7958 21.7623 30.3722 21.7623 36.6747C21.7623 42.9797 26.3689 47.5537 32.7089 47.5537C39.0781 47.5537 43.6991 42.9797 43.6991 36.6772C43.6991 30.3722 39.078 25.7958 32.7113 25.7958H32.7089ZM83.1045 37.221C82.8837 36.7935 82.6047 36.3988 82.2753 36.0484L82.0813 35.8469L82.2851 35.6526C82.576 35.3443 82.8741 34.9801 83.1602 34.5577L88.7608 26.2255H81.9626L77.756 32.7441C77.5184 33.0937 77.0385 33.2685 76.3184 33.2685H75.3607V20.9451C75.3607 18.4808 73.826 18.1458 72.1701 18.1458H69.3333L69.3406 47.2332H75.363V38.5077H75.928C76.6142 38.5077 77.0796 38.5878 77.2954 38.9617L80.6169 45.24C81.5455 46.9443 82.4692 47.2332 84.21 47.2332H88.8239L85.386 41.5425L83.107 37.221H83.1045ZM112.339 25.7472C109.275 25.7472 107.32 27.1117 106.225 28.2649L105.861 28.6339L105.73 28.1313C105.41 26.8956 104.324 26.2182 102.692 26.2182H99.9935L100.011 47.2259H105.992V37.5439C105.992 36.5971 106.113 35.7765 106.365 35.0263C107.029 32.7563 108.887 31.3457 111.207 31.3457C113.074 31.3457 113.804 32.3338 113.804 34.883V44.0334C113.804 46.2087 114.81 47.2259 116.984 47.2259H119.831L119.821 33.8634C119.821 28.5562 117.234 25.7497 112.339 25.7497V25.7472ZM93.4013 26.2255H90.5671L90.5865 42.4699V47.2332H93.6098L93.7165 47.2381L95.1277 47.2332H96.529V47.2259H96.5386L96.5508 29.4181C96.5508 27.2695 95.5253 26.2279 93.4038 26.2279L93.4013 26.2255ZM56.1998 42.4675C53.2031 42.4675 51.1157 40.0834 51.1157 36.6747C51.1157 33.2685 53.2032 30.8869 56.2023 30.8869C59.2087 30.8869 61.3229 33.2685 61.3229 36.6747C61.3229 40.1368 59.262 42.4675 56.2023 42.4675H56.1998ZM56.1998 25.7958C49.8525 25.7958 45.2459 30.3722 45.2459 36.6747C45.2459 42.9797 49.8526 47.5537 56.2023 47.5537C62.5618 47.5537 67.1925 42.9797 67.1925 36.6772C67.1925 30.3722 62.5618 25.7958 56.2023 25.7958" fill="#273B7D"/>
<path d="M132.431 41.5424C129.16 41.5424 127.997 38.6873 127.997 36.0094C127.997 34.8295 128.295 30.9863 132.118 30.9863C134.016 30.9863 136.545 31.5301 136.545 36.2061C136.545 40.6174 134.307 41.5424 132.431 41.5424ZM139.651 26.1696C138.516 26.1696 137.644 26.6236 137.205 27.4514L137.04 27.7719L136.763 27.5291C135.799 26.694 134.067 25.701 131.257 25.701C125.664 25.701 121.899 29.9084 121.899 36.1648C121.899 42.4188 125.795 46.7888 131.369 46.7888C133.272 46.7888 134.778 46.3421 135.971 45.439L136.431 45.0918V45.6745C136.431 48.481 134.62 50.0299 131.335 50.0299C129.737 50.0299 128.285 49.6415 127.31 49.287C126.045 48.9034 125.298 49.2215 124.786 50.4961L124.311 51.6711L123.64 53.39L124.054 53.6109C126.159 54.7277 128.896 55.3954 131.369 55.3954C136.46 55.3954 142.41 52.7855 142.41 45.439L142.432 26.1696H139.651Z" fill="#273B7D"/>
<path d="M10.4375 42.227L5.56907 42.2221V36.3954C5.56907 35.1476 6.05155 34.5018 7.1159 34.3512H10.4375C12.8062 34.3512 14.3384 35.8468 14.3409 38.2673C14.3384 40.7533 12.845 42.2246 10.4375 42.2246V42.227ZM5.56907 24.9702C5.56907 23.6277 6.13643 22.9892 7.3802 22.9066H9.87262C12.0086 22.9066 13.2887 24.1861 13.2887 26.3298C13.2887 27.9613 12.411 29.8671 9.95016 29.8671H5.56907V24.9702ZM16.6539 32.3216L15.7738 31.8263L16.5424 31.1684C17.437 30.3988 18.933 28.6678 18.933 25.6816C18.933 21.1076 15.3932 18.1554 9.91139 18.1554H2.94332C2.15927 18.184 1.41631 18.5136 0.868346 19.0759C0.32038 19.6382 0.00944189 20.39 0 21.1756V47.1287H10.035C16.1277 47.1287 20.0603 43.8075 20.0603 38.663C20.0603 35.8929 18.7899 33.5258 16.6539 32.3216Z" fill="#273B7D"/>
<path d="M144.779 43.98C144.779 42.0451 146.336 40.4816 148.253 40.4816C149.179 40.4816 150.067 40.8499 150.722 41.5055C151.377 42.1612 151.745 43.0504 151.745 43.9776C151.745 44.9048 151.377 45.794 150.722 46.4496C150.067 47.1053 149.179 47.4736 148.253 47.4736C146.338 47.4736 144.779 45.9077 144.779 43.9776" fill="#499FDD"/>
<path d="M184.395 42.4673C181.399 42.4673 179.309 40.0832 179.309 36.6746C179.309 33.2684 181.399 30.8867 184.395 30.8867C187.407 30.8867 189.518 33.2684 189.518 36.6746C189.518 40.1366 187.458 42.4673 184.395 42.4673ZM184.395 25.7957C178.048 25.7957 173.444 30.372 173.444 36.6746C173.444 42.9796 178.048 47.5535 184.395 47.5535C190.757 47.5535 195.386 42.9796 195.386 36.677C195.386 30.372 190.755 25.7957 184.395 25.7957Z" fill="#499FDD"/>
<path d="M222.101 25.8176C220.867 25.8221 219.649 26.1044 218.537 26.6435C217.426 27.1827 216.45 27.9649 215.681 28.9324L215.25 29.4811L214.91 28.8669C213.8 26.8445 211.894 25.8176 209.244 25.8176C206.463 25.8176 204.599 27.3713 203.733 28.2939L203.166 28.9081L202.948 28.0997C202.633 26.9343 201.597 26.2958 200.031 26.2958H197.517L197.493 47.2234H203.202V37.9857C203.202 37.1748 203.304 36.376 203.505 35.5384C204.051 33.3049 205.549 30.9038 208.068 31.1441C209.62 31.2947 210.381 32.4964 210.381 34.8174V47.2234H216.132V37.9857C216.132 36.9733 216.227 36.2158 216.455 35.4583C216.915 33.3267 218.482 31.1417 220.911 31.1417C222.671 31.1417 223.321 32.1371 223.321 34.8174V44.1644C223.321 46.2766 224.262 47.2234 226.373 47.2234H229.06L229.065 33.8633C229.065 28.5246 226.718 25.8176 222.101 25.8176ZM170.135 39.957C170.118 39.9789 167.662 42.5718 164.425 42.5718C161.477 42.5718 158.499 40.7606 158.499 36.7184C158.499 33.2272 160.808 30.7873 164.115 30.7873C165.186 30.7873 166.408 31.1708 166.6 31.8191L166.626 31.9283C166.749 32.3746 167.014 32.768 167.383 33.0476C167.751 33.3272 168.201 33.4774 168.663 33.4748L171.791 33.4797V30.7411C171.791 27.1286 167.201 25.8176 164.115 25.8176C157.51 25.8176 152.719 30.4207 152.719 36.7621C152.719 43.0986 157.457 47.6968 163.993 47.6968C169.662 47.6968 172.746 43.9653 172.775 43.9289L172.94 43.725L170.462 39.6099L170.135 39.957Z" fill="#499FDD"/>
</svg>
