<svg width="175" height="76" viewBox="0 0 175 76" fill="none" xmlns="http://www.w3.org/2000/svg">
<path fill-rule="evenodd" clip-rule="evenodd" d="M108.078 59.8609C97.9544 67.2874 83.2805 71.2498 70.6466 71.2498C52.9317 71.2498 36.9838 64.7289 24.9186 53.8834C23.9707 53.0306 24.82 51.8683 25.9575 52.5325C38.9782 60.0722 55.0778 64.6081 71.7083 64.6081C82.9241 64.6081 95.2623 62.2987 106.607 57.5061C108.321 56.7816 109.754 58.6231 108.078 59.8609Z" fill="#FF9900"/>
<path fill-rule="evenodd" clip-rule="evenodd" d="M112.287 55.0684C110.998 53.4231 103.733 54.291 100.472 54.676C99.4789 54.7967 99.3272 53.9363 100.222 53.3174C106.008 49.2645 115.503 50.4344 116.61 51.7929C117.717 53.159 116.322 62.6308 110.884 67.1516C110.05 67.846 109.254 67.4762 109.625 66.5554C110.846 63.5214 113.584 56.7213 112.287 55.0684Z" fill="#FF9900"/>
<path fill-rule="evenodd" clip-rule="evenodd" d="M100.7 24.7058V20.7661C100.7 20.1698 101.155 19.7698 101.701 19.7698H119.424C119.992 19.7698 120.447 20.1774 120.447 20.7661V24.1397C120.44 24.7058 119.962 25.4454 119.113 26.6152L109.929 39.6645C113.342 39.5815 116.944 40.0872 120.038 41.823C120.736 42.2155 120.925 42.7891 120.978 43.3551V47.559C120.978 48.1326 120.341 48.8043 119.674 48.4571C114.221 45.6118 106.979 45.3023 100.951 48.4873C100.336 48.8194 99.6917 48.1552 99.6917 47.5816V43.5891C99.6917 42.9476 99.6992 41.8532 100.344 40.8796L110.983 25.6945H101.724C101.155 25.6945 100.7 25.2945 100.7 24.7058Z" fill="black"/>
<path fill-rule="evenodd" clip-rule="evenodd" d="M36.0516 49.2874H30.6598C30.1441 49.2496 29.7346 48.8647 29.6967 48.3741V20.8341C29.6967 20.2831 30.1593 19.8454 30.7356 19.8454H35.7634C36.2867 19.868 36.7038 20.268 36.7417 20.7661V24.3662H36.8403C38.1522 20.8869 40.6168 19.2642 43.9384 19.2642C47.313 19.2642 49.4212 20.8869 50.9378 24.3662C52.2422 20.8869 55.2073 19.2642 58.3848 19.2642C60.6446 19.2642 63.1168 20.1925 64.6259 22.2756C66.3322 24.5926 65.9833 27.9587 65.9833 30.9097L65.9758 48.2911C65.9758 48.8421 65.5132 49.2874 64.9368 49.2874H59.5526C59.0142 49.2496 58.5819 48.8194 58.5819 48.2911V33.6946C58.5819 32.5324 58.6881 29.6342 58.4303 28.5323C58.0283 26.6832 56.8226 26.1624 55.2604 26.1624C53.956 26.1624 52.591 27.0304 52.0374 28.4191C51.4839 29.8078 51.5369 32.1324 51.5369 33.6946V48.2911C51.5369 48.8421 51.0744 49.2874 50.498 49.2874H45.1138C44.5678 49.2496 44.1431 48.8194 44.1431 48.2911L44.1355 33.6946C44.1355 30.6229 44.6436 26.1021 40.814 26.1021C36.9389 26.1021 37.0905 30.5097 37.0905 33.6946V48.2911C37.0905 48.8421 36.6279 49.2874 36.0516 49.2874Z" fill="black"/>
<path fill-rule="evenodd" clip-rule="evenodd" d="M135.705 19.2642C143.706 19.2642 148.036 26.1021 148.036 34.7966C148.036 43.1967 143.251 49.861 135.705 49.861C127.849 49.861 123.572 43.0231 123.572 34.5022C123.572 25.9285 127.902 19.2642 135.705 19.2642ZM135.751 24.887C131.777 24.887 131.527 30.2757 131.527 33.6343C131.527 37.0004 131.474 44.1854 135.705 44.1854C139.884 44.1854 140.081 38.3891 140.081 34.8569C140.081 32.5324 139.982 29.755 139.277 27.5511C138.67 25.6341 137.464 24.887 135.751 24.887Z" fill="black"/>
<path fill-rule="evenodd" clip-rule="evenodd" d="M158.41 49.2874H153.041C152.503 49.2496 152.07 48.8194 152.07 48.2911L152.063 20.7435C152.108 20.2378 152.556 19.8454 153.102 19.8454H158.099C158.569 19.868 158.956 20.185 159.062 20.6152V24.8266H159.161C160.67 21.0605 162.786 19.2642 166.509 19.2642C168.928 19.2642 171.287 20.1322 172.803 22.5095C174.214 24.7134 174.214 28.4191 174.214 31.0833V48.4194C174.153 48.9024 173.706 49.2874 173.175 49.2874H167.768C167.275 49.2496 166.866 48.8874 166.812 48.4194V33.4607C166.812 30.4493 167.161 26.0417 163.438 26.0417C162.126 26.0417 160.92 26.9172 160.321 28.2455C159.563 29.9285 159.464 31.604 159.464 33.4607V48.2911C159.457 48.8421 158.986 49.2874 158.41 49.2874Z" fill="black"/>
<path fill-rule="evenodd" clip-rule="evenodd" d="M86.5724 36.1324C86.5724 38.223 86.6255 39.9664 85.5638 41.823C84.7069 43.3325 83.3419 44.2608 81.8328 44.2608C79.7625 44.2608 78.5491 42.691 78.5491 40.374C78.5491 35.8003 82.6669 34.9701 86.5724 34.9701V36.1324ZM92.0097 49.2118C91.6533 49.5288 91.1376 49.5515 90.7357 49.3402C88.946 47.8609 88.6199 47.1741 87.6417 45.7627C84.6841 48.7666 82.5835 49.6647 78.7539 49.6647C74.2114 49.6647 70.6852 46.8797 70.6852 41.3023C70.6852 36.9475 73.0512 33.9814 76.4334 32.5323C79.3606 31.2493 83.448 31.0229 86.5724 30.6681V29.9738C86.5724 28.6983 86.671 27.1888 85.9126 26.0869C85.2605 25.0982 84.0016 24.6907 82.8869 24.6907C80.8317 24.6907 79.0042 25.7397 78.5567 27.9134C78.4657 28.3964 78.1093 28.8719 77.6164 28.8945L72.3914 28.336C71.9516 28.2379 71.4587 27.8832 71.5876 27.2115C72.7858 20.9019 78.5188 19 83.6452 19C86.2691 19 89.6968 19.6944 91.767 21.6717C94.3909 24.1095 94.1406 27.3624 94.1406 30.9021V39.2645C94.1406 41.7778 95.1871 42.8797 96.173 44.2382C96.5142 44.7212 96.5901 45.3023 96.1502 45.6646C95.0506 46.5778 93.0941 48.276 92.0173 49.2269L92.0097 49.2118Z" fill="black"/>
<path fill-rule="evenodd" clip-rule="evenodd" d="M15.8872 36.1324C15.8872 38.223 15.9403 39.9664 14.8786 41.823C14.0217 43.3325 12.6643 44.2608 11.1476 44.2608C9.07734 44.2608 7.87158 42.691 7.87158 40.3739C7.87158 35.8003 11.9894 34.9701 15.8872 34.9701V36.1324ZM21.3245 49.2118C20.9681 49.5288 20.4524 49.5515 20.0505 49.3401C18.2608 47.8609 17.9423 47.1741 16.9565 45.7627C13.999 48.7665 11.906 49.6647 8.06874 49.6647C3.53386 49.6647 0 46.8797 0 41.3023C0 36.9475 2.37361 33.9814 5.74822 32.5323C8.67542 31.2493 12.7629 31.0228 15.8872 30.6681V29.9738C15.8872 28.6983 15.9858 27.1888 15.2351 26.0869C14.5753 25.0982 13.3165 24.6907 12.2093 24.6907C10.1542 24.6907 8.319 25.7397 7.87158 27.9134C7.78057 28.3964 7.42415 28.8719 6.93882 28.8945L1.70627 28.336C1.26643 28.2379 0.78109 27.8832 0.902424 27.2115C2.10819 20.9019 7.83366 19 12.96 19C15.5839 19 19.0116 19.6944 21.0819 21.6717C23.7057 24.1095 23.4555 27.3624 23.4555 30.9021V39.2645C23.4555 41.7777 24.502 42.8796 25.4878 44.2382C25.8367 44.7212 25.9125 45.3023 25.4727 45.6646C24.3731 46.5778 22.4166 48.276 21.3397 49.2269L21.3245 49.2118Z" fill="black"/>
</svg>
