<svg width="198" height="72" viewBox="0 0 198 72" fill="none" xmlns="http://www.w3.org/2000/svg">
<g clip-path="url(#clip0_1_525)">
<path d="M32.843 56.959L19.9378 56.7229C15.7593 56.6407 11.5704 56.805 7.47403 55.9529C1.24215 54.6798 0.800683 48.4376 0.338682 43.2016C-0.297853 35.8404 -0.0514527 28.3457 1.14975 21.0461C1.82735 16.9497 4.49669 14.5062 8.6239 14.2393C22.5558 13.2742 36.5801 13.3871 50.4812 13.8389C51.9494 13.8799 53.4278 14.1058 54.8754 14.3625C62.021 15.615 62.1955 22.6888 62.6575 28.6434C63.1195 34.6597 62.9244 40.7068 62.0415 46.682C61.3331 51.6306 59.9779 55.7783 54.2594 56.1787C47.0932 56.7023 40.0913 57.1233 32.9046 56.9898C32.9046 56.959 32.8636 56.959 32.843 56.959V56.959ZM25.2559 44.4336C30.6562 41.3331 35.9538 38.2839 41.3233 35.2039C35.9128 32.1033 30.6254 29.0541 25.2559 25.9741V44.4336Z" fill="#FF0000"/>
<path d="M166.505 51.3324C166.259 52.3385 166.043 53.129 165.828 53.9709H160.776V15.0088H166.669V29.3822C166.977 28.992 167.131 28.8278 167.265 28.6532C168.271 27.2672 169.575 26.3638 171.259 26.0147C173.938 25.4911 176.228 26.6718 177.039 29.2487C177.562 30.8503 177.901 32.5648 177.942 34.2383C178.024 38.5401 177.963 42.8315 177.809 47.1333C177.747 48.4474 177.347 49.7923 176.844 51.0244C175.191 55.09 169.79 55.706 167.111 52.1845C166.947 51.9689 166.793 51.7328 166.505 51.3324ZM166.793 47.739C166.793 48.8991 167.409 49.6075 168.569 49.8745C169.708 50.1414 170.632 49.6999 171.094 48.6425C171.289 48.201 171.484 47.739 171.495 47.277C171.608 42.9239 171.71 38.5709 171.741 34.2075C171.741 33.3964 171.546 32.5546 171.3 31.764C170.838 30.337 169.565 29.916 168.312 30.7476C167.368 31.3842 166.793 32.2876 166.793 33.4888V47.739ZM150.777 26.5691H156.947V53.9914H152.132C151.957 52.9545 151.783 51.8868 151.577 50.6342C151.249 51.1168 151.054 51.4248 150.848 51.7328C149.247 54.0428 146.978 54.8333 144.298 54.4124C142.009 54.0428 140.633 52.2769 140.325 49.3817C140.233 48.5193 140.192 47.6466 140.192 46.7842C140.171 40.3675 140.192 33.9303 140.192 27.5136V26.5486H146.434V27.6676C146.434 33.8687 146.413 40.0595 146.454 46.2606C146.454 47.1435 146.547 48.0573 146.701 48.9402C146.875 49.8437 147.532 50.1722 148.415 50.1106C149.842 49.9977 150.828 48.9402 150.828 47.5234V27.7806C150.777 27.3802 150.777 27.0106 150.777 26.5691ZM108.293 26.5486H114.494V27.7087C114.494 33.879 114.474 40.039 114.515 46.1887C114.515 47.0717 114.597 47.9854 114.782 48.8478C115.018 49.8642 115.613 50.1928 116.63 50.0593C118.036 49.8642 118.888 48.8889 118.898 47.4618V26.5896H125.069V53.9914H120.274C120.1 52.975 119.925 51.9278 119.699 50.6034C119.391 51.0654 119.217 51.3324 119.042 51.6096C117.441 53.9606 115.192 54.823 112.451 54.4021C110.254 54.0736 108.909 52.4514 108.498 49.7924C108.385 48.9607 108.303 48.1394 108.303 47.3078C108.283 40.6447 108.283 33.9508 108.283 27.2878L108.293 26.5486ZM105.11 41.1889C105.09 42.1129 105.028 43.0369 104.977 43.9609C104.741 46.7329 104.628 50.665 102.39 52.6876C100.963 53.9606 99.1556 54.4226 97.2871 54.4842C96.4555 54.5048 95.6136 54.5048 94.782 54.3918C90.8498 53.7964 89.0224 52.0613 88.3653 47.739C87.6158 42.7494 87.5542 37.6777 88.4474 32.688C89.3714 27.5239 92.5541 25.6964 97.5027 26.0352C102.123 26.3638 104.186 29.3924 104.73 33.7044C105.028 36.1787 105.172 38.6838 105.11 41.1889ZM98.8271 40.2443C98.8271 38.4887 98.8681 36.7228 98.8065 34.9672C98.7655 33.9508 98.632 32.9242 98.4164 31.918C98.17 30.7579 97.4308 30.2035 96.5068 30.224C95.6033 30.2446 94.9668 30.799 94.6383 31.877C94.5253 32.2774 94.4021 32.688 94.4021 33.0884C94.4021 35.8399 94.3816 38.6017 94.3611 41.3531C94.3405 43.9198 94.012 46.6097 94.8231 49.0634C95.0695 49.8129 95.706 50.2236 96.5376 50.2236C97.3487 50.2236 97.8825 49.8231 98.1803 49.1045C98.4164 48.5501 98.6217 47.9443 98.6217 47.3489C98.6936 44.9875 98.8271 42.6159 98.8271 40.2443ZM79.3101 35.0802C79.8542 32.4211 80.3675 29.8236 80.9322 27.2159C81.6406 23.8997 82.4312 20.5836 83.1293 17.2572C83.3038 16.4461 83.6324 16.2511 84.4024 16.2716C86.0553 16.3332 87.739 16.2921 89.5049 16.2921C88.93 18.4071 88.3653 20.4193 87.8109 22.4008C86.0553 28.6224 84.2997 34.8646 82.5646 41.1067C82.4312 41.5893 82.3696 42.1129 82.3696 42.6262C82.349 46.0347 82.3696 49.433 82.3696 52.8416V53.9504H76.343C76.3225 53.6424 76.2814 53.3344 76.2814 53.0264C76.2814 51.0962 76.1274 49.1558 76.3019 47.2462C76.7434 42.657 75.2855 38.4374 74.1049 34.1664C72.5443 28.5198 70.9632 22.8525 69.4027 17.2059C69.3206 16.9389 69.2898 16.6515 69.2076 16.3229H75.3574C76.651 22.5548 77.9549 28.7867 79.3101 35.0802ZM197.223 42.2361H186.833C186.946 44.3202 186.987 46.3017 187.203 48.2626C187.357 49.6281 188.106 50.2133 189.287 50.2236C190.519 50.2441 191.238 49.6281 191.525 48.2729C191.617 47.8314 191.679 47.3899 191.72 46.9382C191.761 46.5378 191.782 46.1066 191.813 45.5317C193.568 45.6241 195.283 45.7267 196.977 45.7986C197.962 48.7246 196.186 52.4822 193.199 53.6424C190.847 54.5664 188.435 54.5664 186.032 53.858C184.256 53.3344 182.932 52.205 182.336 50.47C181.782 48.8478 181.258 47.1538 181.145 45.4598C180.837 41.2813 180.725 37.0617 181.361 32.8728C181.474 32.1747 181.669 31.5074 181.885 30.8298C182.747 28.0372 184.626 26.3227 187.531 26.0352C189.112 25.8812 190.745 25.9428 192.305 26.2098C194.831 26.6512 196.176 28.4684 196.761 30.8503C197.028 31.9694 197.223 33.1192 197.264 34.2588C197.274 36.8769 197.223 39.4743 197.223 42.2361ZM191.32 38.6325C191.32 36.5688 191.34 34.6284 191.299 32.6778C191.299 32.2158 191.125 31.7332 190.95 31.2918C190.601 30.4294 189.872 30.1932 188.999 30.1932C188.127 30.1932 187.572 30.6347 187.357 31.4252C186.7 33.7968 186.915 36.2198 186.936 38.653C188.507 38.6325 189.934 38.6325 191.32 38.6325Z" fill="#282828"/>
<path d="M129.832 21.3228H123.724V16.3742H141.957V21.292H135.89V53.9503H129.843L129.832 21.3228Z" fill="#282828"/>
</g>
<defs>
<clipPath id="clip0_1_525">
<rect width="198" height="72" fill="white"/>
</clipPath>
</defs>
</svg>
