<svg width="228" height="78" viewBox="0 0 228 78" fill="none" xmlns="http://www.w3.org/2000/svg">
<g clip-path="url(#clip0_1_523)">
<path d="M34.3183 5.00342C15.4302 5.00342 0.117691 20.282 0.117691 39.1286C0.117691 57.9761 15.4302 73.2534 34.3183 73.2534C53.2084 73.2534 68.5193 57.9761 68.5193 39.1286C68.5193 20.2832 53.2084 5.00505 34.3179 5.00505L34.3183 5.00342V5.00342ZM50.0025 54.2218C49.3899 55.2242 48.0749 55.5421 47.0702 54.9267C39.0402 50.0326 28.9315 48.9242 17.0267 51.6382C15.8795 51.899 14.736 51.1818 14.4746 50.0367C14.212 48.8916 14.9279 47.7506 16.078 47.4898C29.1059 44.5199 40.281 45.7986 49.296 51.2959C50.3006 51.9112 50.6192 53.2193 50.0025 54.2218V54.2218ZM54.1886 44.9298C53.4167 46.1817 51.775 46.577 50.5212 45.8068C41.3281 40.1686 27.3147 38.5357 16.441 41.8292C15.0308 42.2542 13.5414 41.4612 13.1134 40.0565C12.6886 38.6494 13.4838 37.1661 14.8916 36.7382C27.3122 32.9778 42.7534 34.7993 53.3105 41.2725C54.5643 42.0427 54.9605 43.6808 54.1886 44.9303V44.9298ZM54.548 35.2541C43.5253 28.7214 25.3392 28.1207 14.8152 31.3078C13.1252 31.8192 11.3381 30.8673 10.8259 29.181C10.3138 27.494 11.267 25.712 12.9582 25.1993C25.0391 21.5399 45.1221 22.247 57.8127 29.7642C59.3361 30.6644 59.8343 32.6232 58.9318 34.1379C58.0333 35.6547 56.0648 36.1547 54.5496 35.2541H54.548ZM93.1663 36.5059C87.2608 35.1009 86.2112 34.1147 86.2112 32.0425C86.2112 30.0849 88.0572 28.7674 90.8057 28.7674C93.4685 28.7674 96.1068 29.7678 98.8757 31.8274C98.9574 31.8897 99.0636 31.9146 99.1657 31.8983C99.2718 31.8828 99.3617 31.8261 99.423 31.741L102.306 27.6855C102.425 27.5184 102.392 27.2882 102.233 27.1606C98.937 24.5229 95.2287 23.2404 90.8915 23.2404C84.5164 23.2404 80.0607 27.0584 80.0607 32.5209C80.0607 38.3788 83.9038 40.453 90.5443 42.0541C96.1925 43.3528 97.1482 44.4408 97.1482 46.3855C97.1482 48.5412 95.2205 49.8818 92.1167 49.8818C88.6698 49.8818 85.8559 48.7205 82.7112 46.0065C82.6336 45.9372 82.5275 45.9087 82.4294 45.9127C82.3233 45.9209 82.2293 45.9698 82.164 46.0472L78.9295 49.8859C78.7947 50.0489 78.811 50.2853 78.9662 50.4238C82.6255 53.6839 87.126 55.4035 91.986 55.4035C98.8553 55.4035 103.295 51.6586 103.295 45.8598C103.307 40.9669 100.37 38.257 93.1785 36.5112L93.1663 36.5059V36.5059ZM118.838 30.6949C115.861 30.6949 113.419 31.8653 111.401 34.2634V31.5641C111.401 31.351 111.23 31.1774 111.017 31.1774H105.729C105.516 31.1774 105.345 31.351 105.345 31.5641V61.5568C105.345 61.7687 105.516 61.944 105.729 61.944H111.017C111.23 61.944 111.401 61.7687 111.401 61.5568V52.0905C113.419 54.344 115.861 55.4483 118.838 55.4483C124.372 55.4483 129.975 51.1981 129.975 43.0729C129.984 34.946 124.38 30.6945 118.842 30.6945L118.838 30.6949ZM123.825 43.0729C123.825 47.2086 121.272 50.0978 117.613 50.0978C113.999 50.0978 111.271 47.0782 111.271 43.0729C111.271 39.0671 113.999 36.0483 117.613 36.0483C121.211 36.0479 123.825 39.0015 123.825 43.0724V43.0729ZM144.331 30.6949C137.204 30.6949 131.621 36.1701 131.621 43.1613C131.621 50.0774 137.167 55.4932 144.245 55.4932C151.396 55.4932 156.995 50.0367 156.995 43.0729C156.995 36.1327 151.433 30.6957 144.331 30.6957V30.6949V30.6949ZM144.331 50.1386C140.541 50.1386 137.682 47.0986 137.682 43.0708C137.682 39.0247 140.443 36.0886 144.245 36.0886C148.059 36.0886 150.934 39.1274 150.934 43.1592C150.934 47.2045 148.157 50.1386 144.331 50.1386V50.1386ZM172.212 31.1774H166.392V25.2417C166.392 25.029 166.221 24.8554 166.008 24.8554H160.72C160.507 24.8554 160.332 25.029 160.332 25.2417V31.1774H157.791C157.579 31.1774 157.408 31.351 157.408 31.5641V36.0984C157.408 36.3111 157.579 36.4851 157.791 36.4851H160.332V48.2192C160.332 52.9585 162.696 55.3628 167.364 55.3628C169.259 55.3628 170.832 54.9716 172.314 54.1321C172.437 54.0669 172.51 53.9365 172.51 53.798V49.4784C172.51 49.348 172.441 49.2217 172.326 49.1524C172.212 49.0791 172.069 49.075 171.951 49.1361C170.934 49.6455 169.95 49.8818 168.847 49.8818C167.152 49.8818 166.392 49.1117 166.392 47.392V36.4872H172.212C172.424 36.4872 172.596 36.3136 172.596 36.1005V31.5666C172.604 31.3534 172.433 31.1798 172.216 31.1798L172.212 31.1774V31.1774ZM192.485 31.2006V30.4716C192.485 28.3269 193.31 27.3705 195.156 27.3705C196.259 27.3705 197.145 27.5889 198.137 27.919C198.26 27.9573 198.386 27.9382 198.484 27.8652C198.587 27.7923 198.644 27.6753 198.644 27.5514V23.1056C198.644 22.9356 198.538 22.7853 198.37 22.7351C197.325 22.4242 195.985 22.1051 193.976 22.1051C189.095 22.1051 186.51 24.8493 186.51 30.038V31.1546H183.97C183.758 31.1546 183.582 31.3282 183.582 31.5409V36.0984C183.582 36.3111 183.758 36.4851 183.97 36.4851H186.51V54.5804C186.51 54.7963 186.686 54.9675 186.898 54.9675H192.183C192.399 54.9675 192.571 54.7963 192.571 54.5804V36.4864H197.508L205.072 54.5804C204.214 56.4793 203.369 56.8583 202.217 56.8583C201.286 56.8583 200.302 56.5812 199.301 56.0311C199.207 55.9822 199.093 55.974 198.995 56.0026C198.893 56.0392 198.807 56.1126 198.766 56.2104L196.973 60.1346C196.888 60.3221 196.961 60.5381 197.141 60.6359C199.011 61.6465 200.698 62.0784 202.785 62.0784C206.689 62.0784 208.85 60.261 210.749 55.3791L219.921 31.7288C219.97 31.6098 219.954 31.4753 219.88 31.3697C219.811 31.265 219.693 31.2019 219.566 31.2019H214.061C213.893 31.2019 213.746 31.3066 213.693 31.461L208.053 47.5305L201.878 31.4504C201.821 31.3009 201.678 31.2019 201.519 31.2019H192.485V31.2006V31.2006ZM180.731 31.1774H175.442C175.23 31.1774 175.055 31.351 175.055 31.5641V54.5804C175.055 54.7963 175.23 54.9675 175.442 54.9675H180.731C180.944 54.9675 181.119 54.7963 181.119 54.5804V31.5658C181.119 31.3526 180.948 31.179 180.731 31.179V31.1774ZM178.118 20.6968C176.022 20.6968 174.323 22.3888 174.323 24.4789C174.323 26.5702 176.022 28.2642 178.118 28.2642C180.213 28.2642 181.907 26.5702 181.907 24.4789C181.907 22.3892 180.209 20.6968 178.118 20.6968ZM224.438 38.5781C222.347 38.5781 220.718 36.9012 220.718 34.8649C220.718 32.8286 222.368 31.1326 224.459 31.1326C226.55 31.1326 228.179 32.809 228.179 34.8437C228.179 36.88 226.529 38.5781 224.438 38.5781ZM224.459 31.5018C222.551 31.5018 221.11 33.0136 221.11 34.8649C221.11 36.7154 222.543 38.2068 224.438 38.2068C226.345 38.2068 227.787 36.6962 227.787 34.8437C227.787 32.9932 226.354 31.5018 224.459 31.5018V31.5018ZM225.284 35.2255L226.337 36.6958H225.447L224.499 35.347H223.687V36.6958H222.943V32.7985H224.683C225.594 32.7985 226.19 33.2618 226.19 34.0418C226.194 34.6807 225.823 35.0711 225.288 35.2255H225.284ZM224.655 33.4672H223.687V34.6999H224.655C225.137 34.6999 225.427 34.4639 225.427 34.0829C225.427 33.6819 225.137 33.4672 224.655 33.4672V33.4672Z" fill="#1ED760"/>
</g>
<defs>
<clipPath id="clip0_1_523">
<rect width="228" height="78" fill="white"/>
</clipPath>
</defs>
</svg>
