<svg width="258" height="69" viewBox="0 0 258 69" fill="none" xmlns="http://www.w3.org/2000/svg">
<path fill-rule="evenodd" clip-rule="evenodd" d="M78.1769 49.4203C77.2324 49.0592 76.6141 48.2947 76.6141 47.2753C76.6141 46.0413 77.6306 45.024 78.8673 45.024C79.2315 45.024 79.5237 45.0963 79.7778 45.2046C81.4644 45.9845 83.3016 46.3819 85.1587 46.3684C88.943 46.3684 90.7239 44.5526 90.7239 41.0611V40.116C89.0869 42.0805 87.306 43.2804 84.3604 43.2804C79.8138 43.2804 75.7035 39.9716 75.7035 34.1906V34.1205C75.7035 28.3035 79.8858 25.0328 84.3604 25.0328C87.378 25.0328 89.1589 26.3071 90.6498 27.9424V27.9042C90.6498 26.4133 91.8865 25.1794 93.4154 25.1794C94.9401 25.1794 96.1768 26.4133 96.1768 27.9403V40.4813C96.1768 43.9706 95.3424 46.5128 93.7055 48.1481C91.8865 49.9682 89.087 50.7668 85.3049 50.7668C82.8641 50.7882 80.4427 50.3308 78.1769 49.4203V49.4203ZM90.7239 34.1927V34.1205C90.7239 31.4658 88.6486 29.6117 85.9592 29.6117C83.2698 29.6117 81.2327 31.4658 81.2327 34.1205V34.1927C81.2327 36.8815 83.2698 38.6994 85.9592 38.6994C88.6486 38.6994 90.7239 36.8453 90.7239 34.1927V34.1927ZM99.3066 27.9403C99.3066 26.4133 100.543 25.1794 102.07 25.1794C103.599 25.1794 104.834 26.4133 104.834 27.9403V28.8111C105.634 26.923 106.943 25.1794 108.582 25.1794C110.291 25.1794 111.271 26.305 111.271 27.8681C111.271 29.3208 110.327 30.1936 109.198 30.4485C106.399 31.1048 104.836 33.2477 104.836 37.1724V42.3332C104.836 43.8602 103.599 45.0963 102.07 45.0963C101.708 45.0971 101.349 45.0263 101.014 44.888C100.679 44.7497 100.375 44.5465 100.118 44.2901C99.8613 44.0337 99.6575 43.7291 99.5183 43.3937C99.3791 43.0583 99.3072 42.6986 99.3066 42.3353V27.9403V27.9403ZM110.617 39.2813V39.2091C110.617 34.9552 113.853 32.9928 118.473 32.9928C120.436 32.9928 121.855 33.3199 123.238 33.7913V33.4643C123.238 31.177 121.819 29.9027 119.056 29.9027C117.762 29.8888 116.474 30.0729 115.235 30.4485C114.98 30.5435 114.71 30.5931 114.437 30.595C114.138 30.6007 113.841 30.5465 113.563 30.4357C113.286 30.3249 113.033 30.1596 112.819 29.9496C112.606 29.7396 112.437 29.4891 112.321 29.2126C112.205 28.9362 112.146 28.6394 112.146 28.3396C112.146 27.3584 112.76 26.5237 113.637 26.1946C115.382 25.5404 117.273 25.1794 119.854 25.1794C122.872 25.1794 125.055 25.9779 126.436 27.3584C127.89 28.8111 128.547 30.9582 128.547 33.5747V42.4415C128.547 43.9324 127.346 45.0963 125.855 45.0963C124.254 45.0963 123.2 43.9707 123.2 42.8068V42.7686C121.855 44.2595 120.002 45.2407 117.309 45.2407C113.637 45.2407 110.617 43.1339 110.617 39.2813V39.2813ZM123.31 38.0071V37.028C122.198 36.5381 120.996 36.2899 119.782 36.2995C117.417 36.2995 115.964 37.2446 115.964 38.9904V39.0626C115.964 40.5535 117.201 41.4264 118.982 41.4264C121.565 41.4264 123.31 40.0077 123.31 38.0071ZM131.493 27.9403C131.493 26.4133 132.729 25.1794 134.258 25.1794C135.785 25.1794 137.022 26.4133 137.022 27.9403V28.1591C138.292 26.5237 139.967 25.0328 142.767 25.0328C145.312 25.0328 147.239 26.1585 148.258 28.123C149.967 26.1245 152.006 25.0328 154.657 25.0328C158.768 25.0328 161.243 27.5049 161.243 32.1943V42.3332C161.243 43.8602 160.004 45.0963 158.477 45.0963C158.115 45.0971 157.756 45.0263 157.421 44.888C157.086 44.7498 156.781 44.5466 156.525 44.2902C156.268 44.0339 156.064 43.7293 155.924 43.3938C155.785 43.0584 155.713 42.6987 155.712 42.3353V34.0101C155.712 31.3936 154.547 30.0492 152.476 30.0492C150.403 30.0492 149.13 31.3936 149.13 34.0101V42.3353C149.13 43.8602 147.896 45.0963 146.367 45.0963C145.635 45.0974 144.933 44.8072 144.415 44.2895C143.897 43.7718 143.605 43.0689 143.603 42.3353V34.0101C143.603 31.3936 142.439 30.0492 140.368 30.0492C138.292 30.0492 137.022 31.3936 137.022 34.0101V42.3353C137.022 43.8602 135.785 45.0963 134.258 45.0963C133.896 45.0974 133.537 45.0268 133.201 44.8886C132.866 44.7504 132.561 44.5473 132.305 44.2909C132.048 44.0344 131.844 43.7297 131.704 43.3942C131.565 43.0586 131.493 42.6988 131.493 42.3353V27.9403V27.9403ZM164.225 27.9403C164.225 26.4133 165.461 25.1794 166.988 25.1794C168.517 25.1794 169.754 26.4133 169.754 27.9403V28.1591C171.024 26.5237 172.697 25.0328 175.499 25.0328C178.044 25.0328 179.971 26.1585 180.99 28.123C182.699 26.1245 184.736 25.0328 187.389 25.0328C191.5 25.0328 193.973 27.5049 193.973 32.1943V42.3332C193.973 43.8602 192.737 45.0963 191.208 45.0963C190.476 45.0974 189.774 44.8072 189.256 44.2895C188.738 43.7718 188.446 43.0689 188.444 42.3353V34.0101C188.444 31.3936 187.279 30.0492 185.208 30.0492C183.133 30.0492 181.862 31.3936 181.862 34.0101V42.3353C181.862 43.8602 180.626 45.0963 179.099 45.0963C178.737 45.0971 178.378 45.0263 178.043 44.888C177.708 44.7497 177.403 44.5465 177.147 44.2901C176.89 44.0337 176.686 43.7291 176.547 43.3937C176.408 43.0583 176.336 42.6986 176.335 42.3353V34.0101C176.335 31.3936 175.171 30.0492 173.098 30.0492C171.024 30.0492 169.752 31.3936 169.752 34.0101V42.3353C169.752 43.8602 168.517 45.0963 166.988 45.0963C166.626 45.0971 166.267 45.0263 165.932 44.888C165.597 44.7497 165.293 44.5465 165.036 44.2901C164.779 44.0337 164.576 43.7291 164.436 43.3937C164.297 43.0583 164.225 42.6986 164.225 42.3353V27.9403V27.9403ZM195.792 39.2813V39.2091C195.792 34.9552 199.03 32.9928 203.649 32.9928C205.27 32.9781 206.882 33.2484 208.411 33.7913V33.4643C208.411 31.177 206.992 29.9027 204.229 29.9027C202.702 29.9027 201.465 30.1214 200.411 30.4485C200.155 30.5435 199.885 30.5931 199.612 30.595C199.313 30.6013 199.016 30.5475 198.738 30.4369C198.46 30.3263 198.206 30.1612 197.993 29.9511C197.779 29.741 197.61 29.4902 197.494 29.2135C197.378 28.9368 197.319 28.6396 197.319 28.3396C197.319 27.3584 197.94 26.5237 198.81 26.1946C200.557 25.5404 202.448 25.1794 205.029 25.1794C208.049 25.1794 210.23 25.9779 211.611 27.3584C213.066 28.8111 213.72 30.9582 213.72 33.5747V42.4415C213.72 42.7937 213.65 43.1425 213.515 43.4674C213.379 43.7922 213.18 44.0868 212.93 44.3339C212.68 44.581 212.383 44.7756 212.057 44.9065C211.731 45.0374 211.382 45.1019 211.031 45.0963C209.43 45.0963 208.375 43.9707 208.375 42.8068V42.7686C207.031 44.2595 205.173 45.2407 202.484 45.2407C198.81 45.2407 195.792 43.1339 195.792 39.2813V39.2813ZM208.485 38.0071V37.028C207.374 36.5383 206.171 36.29 204.957 36.2995C202.592 36.2995 201.139 37.2446 201.139 38.9904V39.0626C201.139 40.5535 202.374 41.4264 204.157 41.4264C206.738 41.4264 208.485 40.0077 208.485 38.0071ZM216.668 27.9403C216.668 26.4133 217.905 25.1794 219.431 25.1794C220.96 25.1794 222.195 26.4133 222.195 27.9403V28.8111C222.995 26.923 224.304 25.1794 225.943 25.1794C227.65 25.1794 228.632 26.305 228.632 27.8681C228.632 29.3208 227.686 30.1936 226.559 30.4485C223.76 31.1048 222.195 33.2477 222.195 37.1724V42.3332C222.195 43.8602 220.96 45.0963 219.431 45.0963C218.7 45.0974 217.998 44.8072 217.48 44.2895C216.962 43.7718 216.67 43.0689 216.668 42.3353V27.9403V27.9403ZM230.305 20.8893C230.305 19.3602 231.542 18.1284 233.069 18.1284C234.598 18.1284 235.835 19.3602 235.835 20.8893V42.3332C235.835 43.8602 234.598 45.0963 233.069 45.0963C232.337 45.0974 231.636 44.8072 231.117 44.2895C230.599 43.7718 230.307 43.0689 230.305 42.3353V20.8872V20.8893ZM240.235 50.2932C239.435 50.0043 238.488 49.3481 238.488 48.0058C238.482 47.7135 238.534 47.4228 238.64 47.1507C238.747 46.8785 238.906 46.6303 239.11 46.4205C239.313 46.2107 239.555 46.0434 239.823 45.9284C240.091 45.8134 240.38 45.7528 240.671 45.7504C241.107 45.7504 241.362 45.8226 241.58 45.8969C242.052 46.0413 242.344 46.1157 242.744 46.1157C243.725 46.1157 244.199 45.933 244.707 44.9518L244.89 44.5143L238.236 29.1041C238.07 28.6983 237.971 28.2678 237.944 27.8299C237.944 26.2689 239.144 25.1794 240.671 25.1794C242.052 25.1794 242.852 25.9418 243.325 27.2501L247.545 38.5911L251.617 27.2862C252.053 26.1245 252.852 25.1794 254.273 25.1794C255.689 25.1794 256.888 26.2689 256.888 27.7237C256.888 28.1591 256.744 28.7771 256.636 29.0319L249.834 45.3511C248.197 49.312 246.562 50.8029 243.253 50.8029C242.016 50.8029 241.143 50.6223 240.235 50.2932Z" fill="#4C4C4C"/>
<path fill-rule="evenodd" clip-rule="evenodd" d="M60.4075 35.1152C60.4075 51.787 46.8844 65.3027 30.2038 65.3027C13.5232 65.3027 0 51.787 0 35.1152C0 18.4435 13.5232 4.92773 30.2038 4.92773C46.8844 4.92773 60.4075 18.4435 60.4075 35.1152Z" fill="#15C39A"/>
<path fill-rule="evenodd" clip-rule="evenodd" d="M34.1516 41.6343C34.3295 42.6218 35.2591 43.2993 36.265 43.2993H39.4287L41.2626 43.0444C38.3276 47.3472 33.2325 49.3266 27.6611 48.4537C23.1251 47.7423 19.2286 44.6734 17.5833 40.3897C13.852 30.6649 20.9566 21.3818 30.217 21.3818C35.0431 21.3818 39.2741 24.2043 41.7009 27.613C42.3447 28.5411 43.6238 28.8809 44.5534 28.2374C44.9757 27.9506 45.2736 27.5135 45.3868 27.0148C45.5 26.516 45.4201 25.9927 45.1633 25.5508C43.4433 22.8645 41.0342 20.6918 38.1888 19.2606C35.3433 17.8295 32.1663 17.1926 28.9909 17.4167C20.1604 18.0092 13.0134 25.2322 12.5052 34.063C11.9165 44.3421 20.0715 52.731 30.217 52.731C32.7467 52.7415 35.2489 52.2045 37.5527 51.1566C39.8566 50.1087 41.9079 48.5747 43.5666 46.6591L43.1812 48.8126V50.758C43.1812 51.7605 43.8588 52.6907 44.8477 52.8691C45.143 52.9249 45.4469 52.9148 45.7378 52.8396C46.0288 52.7644 46.2996 52.6259 46.5312 52.434C46.7628 52.2421 46.9495 52.0014 47.0779 51.729C47.2064 51.4566 47.2735 51.1592 47.2745 50.8579V39.2068H36.1633C35.8628 39.2063 35.5658 39.2723 35.2936 39.4001C35.0214 39.5279 34.7806 39.7144 34.5885 39.9462C34.3964 40.1781 34.2576 40.4495 34.1821 40.7413C34.1066 41.0331 34.0961 41.338 34.1516 41.6343V41.6343Z" fill="#F6FFFF"/>
</svg>
