<svg width="214" height="80" viewBox="0 0 214 80" fill="none" xmlns="http://www.w3.org/2000/svg">
<path d="M74.5444 57.9581V33.6997H74.9745L92.5502 57.9581H98.081V22.3343H91.9357V46.5316H91.5055L73.9298 22.3343H68.399V57.9581H74.5444ZM115.472 58.5081C123.584 58.5081 128.562 53.2531 128.562 44.4541C128.562 35.7162 123.584 30.4001 115.472 30.4001C107.422 30.4001 102.383 35.7162 102.383 44.4541C102.444 53.2531 107.36 58.5081 115.472 58.5081ZM115.472 53.3753C111.171 53.3753 108.712 50.1368 108.712 44.4541C108.712 38.8325 111.171 35.5328 115.472 35.5328C119.774 35.5328 122.232 38.8325 122.232 44.4541C122.232 50.1368 119.774 53.3753 115.472 53.3753ZM134.154 24.3508V31.1333H129.852V36.0217H134.154V50.7478C134.154 56.0028 136.612 58.0804 142.88 58.0804C144.048 58.0804 145.216 57.9581 146.137 57.7748V53.0087C145.4 53.0698 144.908 53.1309 144.048 53.1309C141.467 53.1309 140.299 51.9699 140.299 49.2813V36.0217H146.137V31.1333H140.299V24.3508H134.154ZM149.825 57.9581H155.97V30.95H149.825V57.9581ZM152.897 26.4894C154.925 26.4894 156.585 24.8396 156.585 22.8231C156.585 20.7456 154.925 19.0958 152.897 19.0958C150.869 19.0958 149.21 20.7456 149.21 22.8231C149.21 24.8396 150.869 26.4894 152.897 26.4894ZM172.808 58.5081C180.92 58.5081 185.898 53.2531 185.898 44.4541C185.898 35.7162 180.92 30.4001 172.808 30.4001C164.758 30.4001 159.719 35.7162 159.719 44.4541C159.719 53.2531 164.635 58.5081 172.808 58.5081ZM172.808 53.3753C168.507 53.3753 166.048 50.1368 166.048 44.4541C166.048 38.8325 168.507 35.5328 172.808 35.5328C177.049 35.5328 179.568 38.8325 179.568 44.4541C179.507 50.1368 177.049 53.3753 172.808 53.3753ZM189.524 57.9581H195.669V42.2543C195.669 38.2825 198.004 35.7773 201.63 35.7773C205.378 35.7773 207.099 37.8548 207.099 41.9488V57.9581H213.245V40.4823C213.245 34.0052 209.926 30.4001 203.904 30.4001C199.848 30.4001 197.144 32.2332 195.853 35.2884H195.423V30.95H189.462C189.524 30.95 189.524 57.9581 189.524 57.9581Z" fill="black"/>
<path fill-rule="evenodd" clip-rule="evenodd" d="M9.47581 20.0542C11.2644 21.5039 11.9114 21.3894 15.2602 21.1606L46.8082 19.2531C47.4932 19.2531 46.9224 18.5664 46.6941 18.4901L41.4424 14.7134C40.453 13.9504 39.083 13.0348 36.5333 13.2637L6.01277 15.5145C4.90916 15.6289 4.68082 16.2012 5.13749 16.6208L9.47581 20.0542ZM11.3786 27.417V60.683C11.3786 62.476 12.2539 63.1245 14.2708 63.0101L48.9393 60.9882C50.9563 60.8737 51.1846 59.653 51.1846 58.2033V25.1662C51.1846 23.7165 50.6138 22.9154 49.396 23.0299L13.1672 25.1662C11.8353 25.2807 11.3786 25.9673 11.3786 27.417ZM45.5905 29.21C45.8188 30.2019 45.5905 31.2319 44.601 31.3464L42.9266 31.6897V56.2577C41.4805 57.0207 40.1485 57.4785 39.0069 57.4785C37.2183 57.4785 36.7616 56.9062 35.4296 55.2277L24.5077 38.0224V54.6554L27.9708 55.4184C27.9708 55.4184 27.9708 57.4403 25.1927 57.4403L17.5055 57.8981C17.2772 57.4403 17.5055 56.334 18.2666 56.1051L20.2836 55.5329V33.559L17.5055 33.3301C17.2772 32.3382 17.848 30.8886 19.4083 30.7741L27.6663 30.2019L39.0449 47.5979V32.2238L36.1527 31.8804C35.9244 30.6597 36.8377 29.7441 37.9413 29.6296L45.5905 29.21ZM3.46305 12.4626L35.2394 10.1355C39.121 9.79213 40.1485 10.021 42.5841 11.814L52.7068 18.9479C54.3813 20.1687 54.9521 20.512 54.9521 21.8472V61.0263C54.9521 63.4679 54.0768 64.9175 50.9563 65.1464L14.0805 67.3972C11.7211 67.5117 10.6175 67.1683 9.3997 65.6042L1.90277 55.8762C0.570832 54.0832 0 52.748 0 51.1839V16.3538C0 14.3319 0.913331 12.6915 3.46305 12.4626Z" fill="black"/>
</svg>
