<svg width="109" height="17" viewBox="0 0 109 17" fill="none" xmlns="http://www.w3.org/2000/svg">
<g clip-path="url(#clip0_1_533)">
<path d="M16.0556 7.92396C16.2311 7.79322 16.3612 7.61082 16.4279 7.40235C16.4945 7.19388 16.4942 6.96979 16.427 6.7615C16.3598 6.55321 16.2291 6.37116 16.0533 6.24089C15.8774 6.11062 15.6652 6.03865 15.4464 6.03507L11.1964 5.87452C11.1755 5.87307 11.1555 5.86562 11.1387 5.85305C11.1219 5.84049 11.1092 5.82334 11.1019 5.80368L9.63333 1.83702C9.55955 1.63521 9.42553 1.46095 9.24942 1.33783C9.07331 1.21471 8.86363 1.14868 8.64875 1.14868C8.43388 1.14868 8.22419 1.21471 8.04808 1.33783C7.87197 1.46095 7.73796 1.63521 7.66417 1.83702L6.20028 5.81785C6.19304 5.83751 6.18028 5.85465 6.16352 5.86722C6.14676 5.87979 6.12673 5.88724 6.10583 5.88868L1.85583 6.04924C1.63701 6.05281 1.42479 6.12478 1.24893 6.25506C1.07307 6.38533 0.942395 6.56737 0.875221 6.77566C0.808048 6.98396 0.807746 7.20805 0.874359 7.41652C0.940972 7.62499 1.07116 7.80738 1.24667 7.93813L4.58056 10.559C4.59724 10.5721 4.60971 10.5898 4.61643 10.61C4.62314 10.6301 4.6238 10.6518 4.61833 10.6723L3.47083 14.7381C3.41137 14.9452 3.41713 15.1655 3.48733 15.3692C3.55753 15.5728 3.68877 15.7499 3.86318 15.8763C4.03759 16.0027 4.24671 16.0724 4.4621 16.0757C4.67749 16.0791 4.88868 16.016 5.06694 15.8951L8.58972 13.534C8.60708 13.522 8.62766 13.5156 8.64875 13.5156C8.66984 13.5156 8.69043 13.522 8.70778 13.534L12.2306 15.8951C12.4064 16.0201 12.6168 16.0873 12.8326 16.0873C13.0484 16.0873 13.2589 16.0201 13.4347 15.8951C13.6092 15.7698 13.7405 15.5936 13.8107 15.3907C13.8809 15.1877 13.8865 14.968 13.8267 14.7617L12.6697 10.6817C12.6636 10.6613 12.6639 10.6394 12.6707 10.6191C12.6775 10.5988 12.6903 10.5811 12.7075 10.5684L16.0556 7.92396Z" fill="#FEB830"/>
</g>
<g clip-path="url(#clip1_1_533)">
<path d="M39.0556 7.92396C39.2311 7.79322 39.3612 7.61082 39.4279 7.40235C39.4945 7.19388 39.4942 6.96979 39.427 6.7615C39.3598 6.55321 39.2291 6.37116 39.0533 6.24089C38.8774 6.11062 38.6652 6.03865 38.4464 6.03507L34.1964 5.87452C34.1755 5.87307 34.1555 5.86562 34.1387 5.85305C34.1219 5.84049 34.1092 5.82334 34.1019 5.80368L32.6333 1.83702C32.5595 1.63521 32.4255 1.46095 32.2494 1.33783C32.0733 1.21471 31.8636 1.14868 31.6488 1.14868C31.4339 1.14868 31.2242 1.21471 31.0481 1.33783C30.872 1.46095 30.738 1.63521 30.6642 1.83702L29.2003 5.81785C29.193 5.83751 29.1803 5.85465 29.1635 5.86722C29.1468 5.87979 29.1267 5.88724 29.1058 5.88868L24.8558 6.04924C24.637 6.05281 24.4248 6.12478 24.2489 6.25506C24.0731 6.38533 23.9424 6.56737 23.8752 6.77566C23.808 6.98396 23.8077 7.20805 23.8744 7.41652C23.941 7.62499 24.0712 7.80738 24.2467 7.93813L27.5806 10.559C27.5972 10.5721 27.6097 10.5898 27.6164 10.61C27.6231 10.6301 27.6238 10.6518 27.6183 10.6723L26.4708 14.7381C26.4114 14.9452 26.4171 15.1655 26.4873 15.3692C26.5575 15.5728 26.6888 15.7499 26.8632 15.8763C27.0376 16.0027 27.2467 16.0724 27.4621 16.0757C27.6775 16.0791 27.8887 16.016 28.0669 15.8951L31.5897 13.534C31.6071 13.522 31.6277 13.5156 31.6488 13.5156C31.6698 13.5156 31.6904 13.522 31.7078 13.534L35.2306 15.8951C35.4064 16.0201 35.6168 16.0873 35.8326 16.0873C36.0484 16.0873 36.2589 16.0201 36.4347 15.8951C36.6092 15.7698 36.7405 15.5936 36.8107 15.3907C36.8809 15.1877 36.8865 14.968 36.8267 14.7617L35.6697 10.6817C35.6636 10.6613 35.6639 10.6394 35.6707 10.6191C35.6775 10.5988 35.6903 10.5811 35.7075 10.5684L39.0556 7.92396Z" fill="#FEB830"/>
</g>
<g clip-path="url(#clip2_1_533)">
<path d="M62.0556 7.92396C62.2311 7.79322 62.3612 7.61082 62.4279 7.40235C62.4945 7.19388 62.4942 6.96979 62.427 6.7615C62.3598 6.55321 62.2291 6.37116 62.0533 6.24089C61.8774 6.11062 61.6652 6.03865 61.4464 6.03507L57.1964 5.87452C57.1755 5.87307 57.1555 5.86562 57.1387 5.85305C57.1219 5.84049 57.1092 5.82334 57.1019 5.80368L55.6333 1.83702C55.5595 1.63521 55.4255 1.46095 55.2494 1.33783C55.0733 1.21471 54.8636 1.14868 54.6488 1.14868C54.4339 1.14868 54.2242 1.21471 54.0481 1.33783C53.872 1.46095 53.738 1.63521 53.6642 1.83702L52.2003 5.81785C52.193 5.83751 52.1803 5.85465 52.1635 5.86722C52.1468 5.87979 52.1267 5.88724 52.1058 5.88868L47.8558 6.04924C47.637 6.05281 47.4248 6.12478 47.2489 6.25506C47.0731 6.38533 46.9424 6.56737 46.8752 6.77566C46.808 6.98396 46.8077 7.20805 46.8744 7.41652C46.941 7.62499 47.0712 7.80738 47.2467 7.93813L50.5806 10.559C50.5972 10.5721 50.6097 10.5898 50.6164 10.61C50.6231 10.6301 50.6238 10.6518 50.6183 10.6723L49.4708 14.7381C49.4114 14.9452 49.4171 15.1655 49.4873 15.3692C49.5575 15.5728 49.6888 15.7499 49.8632 15.8763C50.0376 16.0027 50.2467 16.0724 50.4621 16.0757C50.6775 16.0791 50.8887 16.016 51.0669 15.8951L54.5897 13.534C54.6071 13.522 54.6277 13.5156 54.6488 13.5156C54.6698 13.5156 54.6904 13.522 54.7078 13.534L58.2306 15.8951C58.4064 16.0201 58.6168 16.0873 58.8326 16.0873C59.0484 16.0873 59.2589 16.0201 59.4347 15.8951C59.6092 15.7698 59.7405 15.5936 59.8107 15.3907C59.8809 15.1877 59.8865 14.968 59.8267 14.7617L58.6697 10.6817C58.6636 10.6613 58.6639 10.6394 58.6707 10.6191C58.6775 10.5988 58.6903 10.5811 58.7075 10.5684L62.0556 7.92396Z" fill="#FEB830"/>
</g>
<g clip-path="url(#clip3_1_533)">
<path d="M85.0556 7.92396C85.2311 7.79322 85.3612 7.61082 85.4279 7.40235C85.4945 7.19388 85.4942 6.96979 85.427 6.7615C85.3598 6.55321 85.2291 6.37116 85.0533 6.24089C84.8774 6.11062 84.6652 6.03865 84.4464 6.03507L80.1964 5.87452C80.1755 5.87307 80.1555 5.86562 80.1387 5.85305C80.1219 5.84049 80.1092 5.82334 80.1019 5.80368L78.6333 1.83702C78.5595 1.63521 78.4255 1.46095 78.2494 1.33783C78.0733 1.21471 77.8636 1.14868 77.6488 1.14868C77.4339 1.14868 77.2242 1.21471 77.0481 1.33783C76.872 1.46095 76.738 1.63521 76.6642 1.83702L75.2003 5.81785C75.193 5.83751 75.1803 5.85465 75.1635 5.86722C75.1468 5.87979 75.1267 5.88724 75.1058 5.88868L70.8558 6.04924C70.637 6.05281 70.4248 6.12478 70.2489 6.25506C70.0731 6.38533 69.9424 6.56737 69.8752 6.77566C69.808 6.98396 69.8077 7.20805 69.8744 7.41652C69.941 7.62499 70.0712 7.80738 70.2467 7.93813L73.5806 10.559C73.5972 10.5721 73.6097 10.5898 73.6164 10.61C73.6231 10.6301 73.6238 10.6518 73.6183 10.6723L72.4708 14.7381C72.4114 14.9452 72.4171 15.1655 72.4873 15.3692C72.5575 15.5728 72.6888 15.7499 72.8632 15.8763C73.0376 16.0027 73.2467 16.0724 73.4621 16.0757C73.6775 16.0791 73.8887 16.016 74.0669 15.8951L77.5897 13.534C77.6071 13.522 77.6277 13.5156 77.6488 13.5156C77.6698 13.5156 77.6904 13.522 77.7078 13.534L81.2306 15.8951C81.4064 16.0201 81.6168 16.0873 81.8326 16.0873C82.0484 16.0873 82.2589 16.0201 82.4347 15.8951C82.6092 15.7698 82.7405 15.5936 82.8107 15.3907C82.8809 15.1877 82.8865 14.968 82.8267 14.7617L81.6697 10.6817C81.6636 10.6613 81.6639 10.6394 81.6707 10.6191C81.6775 10.5988 81.6903 10.5811 81.7075 10.5684L85.0556 7.92396Z" fill="#FEB830"/>
</g>
<g clip-path="url(#clip4_1_533)">
<path d="M108.056 7.92396C108.231 7.79322 108.361 7.61082 108.428 7.40235C108.494 7.19388 108.494 6.96979 108.427 6.7615C108.36 6.55321 108.229 6.37116 108.053 6.24089C107.877 6.11062 107.665 6.03865 107.446 6.03507L103.196 5.87452C103.175 5.87307 103.155 5.86562 103.139 5.85305C103.122 5.84049 103.109 5.82334 103.102 5.80368L101.633 1.83702C101.56 1.63521 101.426 1.46095 101.249 1.33783C101.073 1.21471 100.864 1.14868 100.649 1.14868C100.434 1.14868 100.224 1.21471 100.048 1.33783C99.872 1.46095 99.738 1.63521 99.6642 1.83702L98.2003 5.81785C98.193 5.83751 98.1803 5.85465 98.1635 5.86722C98.1468 5.87979 98.1267 5.88724 98.1058 5.88868L93.8558 6.04924C93.637 6.05281 93.4248 6.12478 93.2489 6.25506C93.0731 6.38533 92.9424 6.56737 92.8752 6.77566C92.808 6.98396 92.8077 7.20805 92.8744 7.41652C92.941 7.62499 93.0712 7.80738 93.2467 7.93813L96.5806 10.559C96.5972 10.5721 96.6097 10.5898 96.6164 10.61C96.6231 10.6301 96.6238 10.6518 96.6183 10.6723L95.4708 14.7381C95.4114 14.9452 95.4171 15.1655 95.4873 15.3692C95.5575 15.5728 95.6888 15.7499 95.8632 15.8763C96.0376 16.0027 96.2467 16.0724 96.4621 16.0757C96.6775 16.0791 96.8887 16.016 97.0669 15.8951L100.59 13.534C100.607 13.522 100.628 13.5156 100.649 13.5156C100.67 13.5156 100.69 13.522 100.708 13.534L104.231 15.8951C104.406 16.0201 104.617 16.0873 104.833 16.0873C105.048 16.0873 105.259 16.0201 105.435 15.8951C105.609 15.7698 105.741 15.5936 105.811 15.3907C105.881 15.1877 105.886 14.968 105.827 14.7617L104.67 10.6817C104.664 10.6613 104.664 10.6394 104.671 10.6191C104.677 10.5988 104.69 10.5811 104.708 10.5684L108.056 7.92396Z" fill="#FEB830"/>
</g>
<defs>
<clipPath id="clip0_1_533">
<rect width="17" height="17" fill="white"/>
</clipPath>
<clipPath id="clip1_1_533">
<rect width="17" height="17" fill="white" transform="translate(23)"/>
</clipPath>
<clipPath id="clip2_1_533">
<rect width="17" height="17" fill="white" transform="translate(46)"/>
</clipPath>
<clipPath id="clip3_1_533">
<rect width="17" height="17" fill="white" transform="translate(69)"/>
</clipPath>
<clipPath id="clip4_1_533">
<rect width="17" height="17" fill="white" transform="translate(92)"/>
</clipPath>
</defs>
</svg>
